<svg width="17" height="17" viewBox="0 0 17 17" fill="none" xmlns="http://www.w3.org/2000/svg">
<path id="Vector" d="M15.5484 5.67682L9.75833 11.4669L12.3537 14.0623C12.4968 14.2055 12.5943 14.3878 12.6337 14.5864C12.6732 14.7849 12.6529 14.9907 12.5754 15.1777C12.498 15.3647 12.3668 15.5245 12.1985 15.637C12.0302 15.7494 11.8324 15.8095 11.63 15.8095H2.09659C1.82518 15.8094 1.56489 15.7016 1.37298 15.5097C1.18106 15.3178 1.07323 15.0575 1.07319 14.7861L1.07319 5.2527C1.07322 5.05029 1.13326 4.85244 1.24572 4.68415C1.35818 4.51586 1.51801 4.38469 1.70501 4.30723C1.89201 4.22976 2.09778 4.20948 2.2963 4.24894C2.49483 4.28841 2.67719 4.38584 2.82035 4.52894L5.41576 7.12435L11.2059 1.33425C11.3978 1.1423 11.6582 1.03446 11.9296 1.03446C12.2011 1.03446 12.4614 1.1423 12.6534 1.33425L15.5484 4.2293C15.7404 4.42125 15.8482 4.6816 15.8482 4.95306C15.8482 5.22452 15.7404 5.48487 15.5484 5.67682Z" stroke="#5F66E9" stroke-width="1.5" stroke-linecap="round" stroke-linejoin="round"/>
</svg>
