<svg width="16" height="16" viewBox="0 0 16 16" fill="none" xmlns="http://www.w3.org/2000/svg">
<g id="ant-design:message-outlined">
<g id="Group">
<path id="Vector" d="M8.74991 8C8.74991 7.80109 8.67089 7.61032 8.53024 7.46967C8.38959 7.32902 8.19882 7.25 7.99991 7.25C7.801 7.25 7.61023 7.32902 7.46958 7.46967C7.32893 7.61032 7.24991 7.80109 7.24991 8C7.24991 8.19891 7.32893 8.38968 7.46958 8.53033C7.61023 8.67098 7.801 8.75 7.99991 8.75C8.19882 8.75 8.38959 8.67098 8.53024 8.53033C8.67089 8.38968 8.74991 8.19891 8.74991 8ZM5.62491 8C5.62491 7.80109 5.54589 7.61032 5.40524 7.46967C5.26459 7.32902 5.07382 7.25 4.87491 7.25C4.676 7.25 4.48523 7.32902 4.34458 7.46967C4.20393 7.61032 4.12491 7.80109 4.12491 8C4.12491 8.19891 4.20393 8.38968 4.34458 8.53033C4.48523 8.67098 4.676 8.75 4.87491 8.75C5.07382 8.75 5.26459 8.67098 5.40524 8.53033C5.54589 8.38968 5.62491 8.19891 5.62491 8ZM11.8749 8C11.8749 7.80109 11.7959 7.61032 11.6552 7.46967C11.5146 7.32902 11.3238 7.25 11.1249 7.25C10.926 7.25 10.7352 7.32902 10.5946 7.46967C10.4539 7.61032 10.3749 7.80109 10.3749 8C10.3749 8.19891 10.4539 8.38968 10.5946 8.53033C10.7352 8.67098 10.926 8.75 11.1249 8.75C11.3238 8.75 11.5146 8.67098 11.6552 8.53033C11.7959 8.38968 11.8749 8.19891 11.8749 8ZM1.54366 10.7125C1.89679 11.5516 2.40304 12.3047 3.04835 12.9516C3.68915 13.5947 4.44986 14.1059 5.28741 14.4562C6.14679 14.8172 7.05929 15 7.99991 15H8.03116C8.97804 14.9953 9.89522 14.8078 10.7577 14.4391C11.5881 14.0851 12.3417 13.573 12.9765 12.9313C13.6155 12.2859 14.1171 11.5359 14.464 10.7C14.8233 9.83437 15.0046 8.91406 14.9999 7.96719C14.9946 6.88208 14.7379 5.81296 14.2499 4.84375V2.46875C14.2499 2.27813 14.1742 2.09531 14.0394 1.96052C13.9046 1.82573 13.7218 1.75 13.5312 1.75H11.1546C10.1854 1.26202 9.11627 1.0053 8.03116 1H7.99835C7.06241 1 6.1546 1.18125 5.29991 1.53594C4.46659 1.88211 3.70871 2.38736 3.06866 3.02344C2.42335 3.6625 1.91554 4.40938 1.56085 5.24219C1.1921 6.10469 1.0046 7.02187 0.999911 7.96875C0.995224 8.92031 1.1796 9.84375 1.54366 10.7125ZM3.9046 3.86875C4.99991 2.78437 6.45304 2.1875 7.99991 2.1875H8.02647C8.96866 2.19219 9.9046 2.42656 10.7312 2.86719L10.8624 2.9375H13.0624V5.1375L13.1327 5.26875C13.5733 6.09531 13.8077 7.03125 13.8124 7.97344C13.8187 9.53125 13.2233 10.9938 12.1312 12.0953C11.0405 13.1969 9.58272 13.8062 8.02491 13.8125H7.99835C7.2171 13.8125 6.45929 13.6609 5.74522 13.3609C5.04835 13.0688 4.42335 12.6484 3.88585 12.1109C3.34991 11.575 2.92804 10.9484 2.63585 10.2516C2.33272 9.52969 2.18116 8.76406 2.18429 7.97344C2.19366 6.41719 2.8046 4.95937 3.9046 3.86875Z" fill="#192A3E"/>
</g>
</g>
</svg>
